{"title":"Prefontaine (1997) Jared Leto [The running legend](DVDrip)","uid":4317618,"size":732036706,"categoryP":"video","categoryS":"movies","magnet":"?xt=urn:btih:cd8978027795fb9b6c9f50557f780475d23b15ae&amp;dn=Prefontaine+%281997%29+Jared+Leto+%5BThe+running+legend%5D%28DVDrip%29&amp;tr=udp%3A%2F%2Ftracker.openbittorrent.com%3A80&amp;tr=udp%3A%2F%2Fopen.demonii.com%3A1337&amp;tr=udp%3A%2F%2Ftracker.coppersurfer.tk%3A6969&amp;tr=udp%3A%2F%2Fexodus.desync.com%3A6969","seeders":12,"leechers":0,"uploader":"Kuthumi","files":-1,"time":1217179779,"description":" &lt;a href=&quot;http://www.imdb.com/title/tt0119937/&quot; rel=&quot;nofollow&quot; target=&quot;_NEW&quot;&gt;http://www.imdb.com/title/tt0119937/&lt;/a&gt;\n\nStory of Steve Roland Prefontaine, considered to be among the greatest and most inspirational long-distance runners of the modern era, played by Jared Leto (then 26).\n\nThis is not my rip; I found it at another site, but thought it should be shared here.\n\nWidescreen 480x352, good stereo sound.\nBurn tested, runs well in both my standalone DivX players.\n\nFormat/Info                      : Audio Video Interleave\nFile size                        : 698 MiB\nDuration                         : 1h 46mn\nOveral bit rate                  : 916 Kbps\nWriting application              : VirtualDubMod 1.5.10.2 (build 2540/release)\nWriting library                  : VirtualDubMod build 2540/release\n\nVideo\nFormat                           : MPEG-4 Visual\nFormat settings, BVOP            : No\nFormat settings, QPel            : No\nFormat settings, GMC             : No warppoints\nFormat settings, Matrix          : Default\nCodec ID                         : XVID\nCodec ID/Hint                    : XviD\nDuration                         : 1h 46mn\nBit rate                         : 810 Kbps\nWidth                            : 480 pixels\nHeight                           : 352 pixels\nDisplay aspect ratio             : 4/3\nFrame rate                       : 23.976 fps\nResolution                       : 8 bits\nColorimetry                      : 4:2:0\nScan type                        : Progressive\nBits/(Pixel*Frame)               : 0.200\nStream size                      : 617 MiB\nWriting library                  : XviD 1.0.3 (UTC 2004-12-20)\n\nAudio\nFormat                           : MPEG Audio\nFormat version                   : Version 1\nFormat profile                   : Layer 3\nCodec ID                         : 55\nCodec ID/Hint                    : MP3\nDuration                         : 1h 46mn\nBit rate mode                    : Variable\nBit rate                         : 96.0 Kbps\nChannel(s)                       : 2 channels\nSampling rate                    : 32.0 KHz\nResolution                       : 16 bits\nStream size                      : 73.2 MiB\nWriting library                  : LAME3.90.\nEncoding settings                : ABR\n","torrent":{"xt":"urn:btih:cd8978027795fb9b6c9f50557f780475d23b15ae","amp;dn":"Prefontaine+%281997%29+Jared+Leto+%5BThe+running+legend%5D%28DVDrip%29","amp;tr":["udp%3A%2F%2Ftracker.openbittorrent.com%3A80","udp%3A%2F%2Fopen.demonii.com%3A1337","udp%3A%2F%2Ftracker.coppersurfer.tk%3A6969","udp%3A%2F%2Fexodus.desync.com%3A6969"],"infoHash":"cd8978027795fb9b6c9f50557f780475d23b15ae","infoHashBuffer":{"type":"Buffer","data":[205,137,120,2,119,149,251,155,108,159,80,85,127,120,4,117,210,59,21,174]},"announce":[],"urlList":[]}}